<svg width="55" height="54" viewBox="0 0 55 54" fill="none" xmlns="http://www.w3.org/2000/svg">
<g clip-path="url(#clip0_137_2)">
<path d="M49.6665 48.5897C51.1103 48.5897 52.4776 48.5897 53.845 48.5897C54.6858 48.5897 54.9915 48.8998 54.9915 49.7355C54.9915 50.709 54.9915 51.6825 54.9915 52.656C54.9915 53.7329 54.7452 53.9914 53.7006 53.9914C46.5326 53.9914 39.3646 53.9914 32.1966 53.9914C21.9202 53.9914 11.6523 53.9914 1.37585 53.9914C0.212322 53.9914 0 53.7674 0 52.5699C0 51.6308 0 50.6918 0 49.7613C0 48.8826 0.297251 48.5983 1.17202 48.5897C2.53088 48.5897 3.89824 48.5897 5.31655 48.5897V47.8832C5.31655 36.2786 5.31655 24.6739 5.31655 13.0692C5.31655 11.9148 5.53737 11.6908 6.67542 11.6908C10.718 11.6908 14.7691 11.6908 18.8118 11.6908H19.5082V11.0877C19.5082 7.80536 19.5082 4.52297 19.5082 1.2492C19.5082 0.284301 19.78 0 20.7142 0C25.2409 0 29.7676 0 34.2943 0C35.1946 0 35.4748 0.292916 35.4748 1.22336C35.4748 6.8663 35.4748 12.5093 35.4748 18.1522V18.9017H36.1458C40.2309 18.9017 44.3159 18.9017 48.3925 18.9017C49.4117 18.9017 49.6665 19.1602 49.6665 20.194C49.6665 29.4209 49.6665 38.6391 49.6665 47.866C49.6665 48.09 49.6665 48.3054 49.6665 48.5983V48.5897ZM21.3172 1.8178V48.5466H33.6658V1.8178H21.3172ZM7.12554 13.5172V48.5466H19.4742V13.5172H7.12554ZM47.866 20.7281H35.5173V48.5638H47.866V20.7281ZM53.191 50.4247H1.792V52.1563H53.191V50.4247Z" fill="white"/>
<path d="M26.5996 5.4533C26.4297 5.37576 26.2089 5.34991 26.141 5.23792C25.9711 4.93639 25.7418 4.58316 25.7673 4.27302C25.8183 3.6958 26.3958 3.50626 27.4829 3.59242C28.0094 3.63549 28.3576 3.95425 28.3576 4.4884C28.3746 6.89203 28.3746 9.28706 28.3576 11.6907C28.3576 12.2248 27.9585 12.5867 27.4829 12.5867C26.9818 12.5867 26.6081 12.2076 26.5996 11.6304C26.5911 9.79535 26.5996 7.96032 26.5996 6.11667C26.5996 5.89267 26.5996 5.66868 26.5996 5.44468V5.4533Z" fill="white"/>
<path d="M12.2891 22.494C13.2573 22.494 14.0726 22.494 14.8794 22.494C15.5418 22.494 15.941 22.8214 15.958 23.3642C15.975 23.9242 15.5588 24.286 14.8794 24.286C13.8263 24.286 12.7732 24.286 11.72 24.286C10.9557 24.286 10.6499 23.9586 10.6414 23.1919C10.6188 21.8939 11.0576 20.7911 11.9578 19.8836C12.6118 19.2203 13.2742 18.5655 13.9112 17.8849C14.0811 17.704 14.1575 17.4369 14.3359 17.0923C13.3592 17.0923 12.5523 17.0923 11.7455 17.0923C11.0491 17.0923 10.6414 16.7563 10.6414 16.1877C10.6414 15.6277 11.0491 15.2917 11.7455 15.2917C12.7986 15.2917 13.8518 15.2917 14.9049 15.2917C15.6268 15.2917 15.941 15.6191 15.958 16.36C15.9863 17.6695 15.5418 18.7895 14.6246 19.72C13.9707 20.3833 13.3082 21.0295 12.6712 21.7187C12.5099 21.891 12.4419 22.1667 12.2891 22.494Z" fill="white"/>
<path d="M42.5408 29.6964V27.8958C41.9887 27.8958 41.4537 27.8958 40.9271 27.8958C40.3071 27.8872 39.925 27.5512 39.908 27.0257C39.891 26.4829 40.2901 26.1125 40.9271 26.1039C41.4452 26.1039 41.9632 26.1039 42.5153 26.1039V24.3033C41.683 24.3033 40.8422 24.3119 40.0014 24.3033C39.3984 24.3033 39.0077 23.9242 39.0162 23.3987C39.0162 22.9076 39.3729 22.52 39.908 22.5113C41.0885 22.4941 42.269 22.4941 43.4495 22.5113C43.9761 22.52 44.3243 22.8732 44.3243 23.4073C44.3413 25.8023 44.3413 28.206 44.3243 30.601C44.3243 31.1351 43.9676 31.4884 43.4495 31.497C42.269 31.5142 41.0885 31.5142 39.908 31.497C39.3814 31.497 39.0247 31.1007 39.0247 30.6096C39.0247 30.1013 39.3899 29.7222 39.9589 29.7136C40.8082 29.6964 41.649 29.7136 42.5493 29.7136L42.5408 29.6964Z" fill="white"/>
</g>
<defs>
<clipPath id="clip0_137_2">
<rect width="55" height="54" fill="white"/>
</clipPath>
</defs>
</svg>
