<svg width="58" height="54" viewBox="0 0 58 54" fill="none" xmlns="http://www.w3.org/2000/svg">
    <path d="M43.8255 1.19885H1.20709V52.8011H43.8255V1.19885Z" fill="#202124"/>
    <path d="M45.0326 54H0V0H45.0326V54ZM2.41415 51.6023H42.6184V2.39772H2.41415V51.6023Z" fill="#FAF5F0"/>
    <path d="M8.7254 25.3473L11.7 28.1988L15.942 23.3092" fill="#202124"/>
    <path d="M11.7862 29.9457L7.8891 26.2121L9.56176 24.4824L11.6224 26.4519L15.0281 22.5214L16.8559 24.0884L11.7862 29.9457Z" fill="#FAF5F0"/>
    <path d="M9.07892 40.8126L11.7 43.4244L16.2093 38.2607" fill="#202124"/>
    <path d="M11.7604 45.1798L8.21674 41.6689L9.93251 39.9648L11.6397 41.6603L15.2954 37.4729L17.1232 39.0485L11.7604 45.1798Z" fill="#FAF5F0"/>
    <path d="M35.5915 8.28931H22.2447V10.687H35.5915V8.28931Z" fill="#FAF5F0"/>
    <path d="M35.5915 13.5128H22.2447V15.9105H35.5915V13.5128Z" fill="#FAF5F0"/>
    <path d="M35.5915 23.2322H22.2447V25.6299H35.5915V23.2322Z" fill="#FAF5F0"/>
    <path d="M35.5915 28.4558H22.2447V30.8535H35.5915V28.4558Z" fill="#FAF5F0"/>
    <path d="M35.5915 37.7555H22.2447V40.1532H35.5915V37.7555Z" fill="#FAF5F0"/>
    <path d="M35.5915 42.979H22.2447V45.3767H35.5915V42.979Z" fill="#FAF5F0"/>
    <path d="M42.1701 42.3025C48.208 42.3025 53.1027 37.4411 53.1027 31.4443C53.1027 25.4475 48.208 20.5861 42.1701 20.5861C36.1321 20.5861 31.2374 25.4475 31.2374 31.4443C31.2374 37.4411 36.1321 42.3025 42.1701 42.3025Z" fill="#202124"/>
    <path d="M42.1701 43.5014C35.4794 43.5014 30.0303 38.0894 30.0303 31.4443C30.0303 24.7992 35.4794 19.3872 42.1701 19.3872C48.8607 19.3872 54.3098 24.7992 54.3098 31.4443C54.3098 38.0894 48.8607 43.5014 42.1701 43.5014ZM42.1701 21.7935C36.8072 21.7935 32.4531 26.1265 32.4531 31.4443C32.4531 36.7621 36.8158 41.0951 42.1701 41.0951C47.5243 41.0951 51.887 36.7621 51.887 31.4443C51.887 26.1265 47.5243 21.7935 42.1701 21.7935Z" fill="#FAF5F0"/>
    <path d="M49.9577 38.9394L48.2506 40.6349L56.286 48.6156L57.9931 46.9201L49.9577 38.9394Z" fill="#FAF5F0"/>
    <path d="M12.3295 12.528C13.577 12.528 14.5884 11.5236 14.5884 10.2845C14.5884 9.04538 13.577 8.04089 12.3295 8.04089C11.0819 8.04089 10.0705 9.04538 10.0705 10.2845C10.0705 11.5236 11.0819 12.528 12.3295 12.528Z" fill="#202124"/>
    <path d="M12.3294 13.7269C10.4154 13.7269 8.8634 12.1855 8.8634 10.2845C8.8634 8.38343 10.4154 6.84204 12.3294 6.84204C14.2435 6.84204 15.7955 8.38343 15.7955 10.2845C15.7955 12.1855 14.2435 13.7269 12.3294 13.7269ZM12.3294 9.23976C11.7518 9.23976 11.2776 9.71074 11.2776 10.2845C11.2776 10.8582 11.7518 11.3292 12.3294 11.3292C12.9071 11.3292 13.3813 10.8582 13.3813 10.2845C13.3813 9.71074 12.9071 9.23976 12.3294 9.23976Z" fill="#FAF5F0"/>
    <path d="M16.0283 16.2274C16.0283 14.1979 14.3728 12.5537 12.3294 12.5537C10.286 12.5537 8.63062 14.1979 8.63062 16.2274" fill="#202124"/>
    <path d="M17.2353 16.2274H14.8212C14.8212 14.8658 13.7089 13.7526 12.3294 13.7526C10.9499 13.7526 9.83768 14.8572 9.83768 16.2274H7.42352C7.42352 13.5385 9.62213 11.3549 12.3294 11.3549C15.0367 11.3549 17.2353 13.5385 17.2353 16.2274Z" fill="#FAF5F0"/>
</svg>
