<svg width="55" height="54" viewBox="0 0 55 54" fill="none" xmlns="http://www.w3.org/2000/svg">

<path d="M49.6753 48.5975C51.119 48.5975 52.4864 48.5975 53.8538 48.5975C54.6945 48.5975 55.0003 48.9076 55.0003 49.7433C55.0003 50.7168 55.0003 51.6903 55.0003 52.6638C55.0003 53.7407 54.754 53.9992 53.7094 53.9992C46.5414 53.9992 39.3734 53.9992 32.2054 53.9992C21.929 53.9992 11.661 53.9992 1.38464 53.9992C0.221111 53.9992 0.00878906 53.7752 0.00878906 52.5777C0.00878906 51.6386 0.00878906 50.6996 0.00878906 49.7691C0.00878906 48.8904 0.30604 48.6061 1.18081 48.5975C2.53967 48.5975 3.90703 48.5975 5.32534 48.5975V47.891C5.32534 36.2864 5.32534 24.6817 5.32534 13.0771C5.32534 11.9226 5.54616 11.6986 6.68421 11.6986C10.7268 11.6986 14.7779 11.6986 18.8206 11.6986H19.517V11.0956C19.517 7.81317 19.517 4.53079 19.517 1.25701C19.517 0.292114 19.7887 0.0078125 20.723 0.0078125C25.2497 0.0078125 29.7764 0.0078125 34.3031 0.0078125C35.2034 0.0078125 35.4836 0.300729 35.4836 1.23117C35.4836 6.87412 35.4836 12.5171 35.4836 18.16V18.9095H36.1546C40.2396 18.9095 44.3247 18.9095 48.4013 18.9095C49.4205 18.9095 49.6753 19.168 49.6753 20.2018C49.6753 29.4287 49.6753 38.6469 49.6753 47.8738C49.6753 48.0978 49.6753 48.3132 49.6753 48.6061V48.5975ZM21.326 1.82562V48.5544H33.6746V1.82562H21.326ZM7.13433 13.525V48.5544H19.483V13.525H7.13433ZM47.8748 20.736H35.5261V48.5716H47.8748V20.736ZM53.1998 50.4325H1.80079V52.1642H53.1998V50.4325Z" fill="white"/>
<path d="M26.6087 5.4627C26.4388 5.38516 26.218 5.35931 26.1501 5.24732C25.9802 4.94578 25.7509 4.59256 25.7764 4.28241C25.8273 3.7052 26.4048 3.51566 27.4919 3.60182C28.0185 3.64489 28.3667 3.96365 28.3667 4.49779C28.3837 6.90143 28.3837 9.29645 28.3667 11.7001C28.3667 12.2342 27.9675 12.5961 27.4919 12.5961C26.9908 12.5961 26.6172 12.217 26.6087 11.6398C26.6002 9.80475 26.6087 7.96972 26.6087 6.12607C26.6087 5.90207 26.6087 5.67808 26.6087 5.45408V5.4627Z" fill="white"/>
<path d="M12.2979 22.5031C13.2661 22.5031 14.0814 22.5031 14.8882 22.5031C15.5507 22.5031 15.9498 22.8305 15.9668 23.3732C15.9838 23.9332 15.5676 24.295 14.8882 24.295C13.8351 24.295 12.782 24.295 11.7288 24.295C10.9645 24.295 10.6587 23.9677 10.6502 23.2009C10.6276 21.9029 11.0664 20.8001 11.9666 19.8927C12.6206 19.2293 13.283 18.5746 13.92 17.894C14.0899 17.713 14.1663 17.446 14.3447 17.1014C13.368 17.1014 12.5611 17.1014 11.7543 17.1014C11.0579 17.1014 10.6502 16.7654 10.6502 16.1968C10.6502 15.6368 11.0579 15.3008 11.7543 15.3008C12.8074 15.3008 13.8606 15.3008 14.9137 15.3008C15.6356 15.3008 15.9498 15.6282 15.9668 16.3691C15.9951 17.6786 15.5506 18.7985 14.6334 19.729C13.9795 20.3924 13.317 21.0385 12.6801 21.7277C12.5187 21.9 12.4507 22.1757 12.2979 22.5031Z" fill="white"/>
<path d="M42.5491 29.7058V27.9052C41.9971 27.9052 41.462 27.9052 40.9355 27.9052C40.3155 27.8966 39.9333 27.5606 39.9163 27.0351C39.8993 26.4923 40.2985 26.1219 40.9355 26.1133C41.4535 26.1133 41.9716 26.1133 42.5236 26.1133V24.3127C41.6913 24.3127 40.8505 24.3213 40.0097 24.3127C39.4067 24.3127 39.0161 23.9336 39.0245 23.4081C39.0245 22.917 39.3813 22.5294 39.9163 22.5207C41.0968 22.5035 42.2773 22.5035 43.4578 22.5207C43.9844 22.5294 44.3326 22.8826 44.3326 23.4167C44.3496 25.8117 44.3496 28.2154 44.3326 30.6104C44.3326 31.1445 43.9759 31.4978 43.4578 31.5064C42.2773 31.5236 41.0968 31.5236 39.9163 31.5064C39.3897 31.5064 39.033 31.1101 39.033 30.619C39.033 30.1107 39.3982 29.7316 39.9673 29.723C40.8166 29.7058 41.6573 29.723 42.5576 29.723L42.5491 29.7058Z" fill="white"/>
</svg>
