<svg width="60" height="51" viewBox="0 0 60 51" fill="none" xmlns="http://www.w3.org/2000/svg">
<path d="M52.8427 26.7401H36.8309C37.2303 26.267 37.499 25.9541 37.5221 25.9236C37.645 25.7481 37.7601 25.5802 37.883 25.4046C40.0563 22.2453 41.4079 19.4522 42.1528 16.5981C42.8209 14.0111 42.8977 11.8972 42.3909 9.95889C40.9395 4.38804 37.3762 1.09895 31.7932 0.175557C28.0302 -0.442578 24.6666 0.534229 21.7791 3.06782C17.8011 6.57059 16.4879 11.1188 17.8779 16.5981C18.6382 19.5896 20.0973 22.5353 22.4779 25.8778C22.501 25.9083 22.7851 26.2441 23.1998 26.7325H7.36465L0 51H60L52.8427 26.7401ZM20.704 17.0331C19.5904 13.6982 19.6903 10.7907 21.0188 8.13501C23.0155 4.10568 27.5387 1.91549 32.0159 2.80073C36.3471 3.65543 39.7107 7.43293 40.0333 11.7828C40.1945 14.0035 39.7491 16.3081 38.6433 18.8265C37.3147 21.8485 35.487 24.4584 33.5825 26.7401C32.9912 27.4498 32.3845 28.1367 31.7932 28.7777C31.3938 29.2127 30.9868 29.64 30.5952 30.0521L30.0115 30.6626L29.4279 30.0445C29.0209 29.6171 28.6292 29.1974 28.2529 28.7777C27.6309 28.0909 27.0319 27.4117 26.4636 26.7401C23.891 23.6723 21.925 20.6351 20.7193 17.0331H20.704ZM8.88519 28.7777H24.943C26.2178 30.2582 27.5387 31.792 27.723 31.9752C28.1454 32.3949 28.5678 32.8146 28.9978 33.2191C29.6506 33.822 30.3648 33.822 31.0099 33.2191C31.4015 32.8604 31.7778 32.4789 32.1618 32.1049C32.3691 31.8913 33.7591 30.2963 35.0723 28.7777H51.2991L52.451 32.6696L43.3508 39.9652L7.68719 32.7383L8.88519 28.7853V28.7777ZM7.08819 34.6996L12.1106 35.7145V48.9548H2.76462L7.09587 34.6919L7.08819 34.6996ZM14.161 36.1343L41.2774 41.6364L32.1464 48.9625H14.1687V36.1343H14.161ZM53.0731 34.7988L57.2507 48.9625H35.4102L53.0731 34.7988Z" fill="white"/>
<path d="M30.0499 17.201C31.2172 17.201 32.3307 16.7354 33.1908 15.8807C34.074 15.0031 34.5808 13.8127 34.5731 12.6145C34.5731 10.1115 32.5304 8.06629 30.0269 8.05103C28.8135 8.05103 27.6769 8.52417 26.8168 9.37887C25.9337 10.2565 25.4499 11.4088 25.4499 12.6222C25.4499 15.1176 27.4926 17.1704 30.0038 17.1933H30.0499V17.201ZM27.7998 12.668C27.7845 12.088 28.0225 11.508 28.4603 11.0654C28.898 10.6304 29.4586 10.3786 30.0422 10.3938C31.2249 10.4091 32.2309 11.4317 32.2386 12.6145C32.2386 13.805 31.2326 14.8124 30.0422 14.8276H30.0192C28.8289 14.8276 27.8305 13.8584 27.7998 12.668Z" fill="white"/>
</svg>
