<svg width="55" height="54" viewBox="0 0 55 54" fill="none" xmlns="http://www.w3.org/2000/svg">
<g clip-path="url(#clip0_3_51)">
<g opacity="0.6">
<path d="M49.6751 48.5984C51.1189 48.5984 52.4862 48.5984 53.8536 48.5984C54.6944 48.5984 55.0001 48.9086 55.0001 49.7443C55.0001 50.7178 55.0001 51.6913 55.0001 52.6648C55.0001 53.7417 54.7538 54.0002 53.7092 54.0002C46.5412 54.0002 39.3732 54.0002 32.2052 54.0002C21.9288 54.0002 11.6609 54.0002 1.38449 54.0002C0.220959 54.0002 0.00863647 53.7762 0.00863647 52.5787C0.00863647 51.6396 0.00863647 50.7006 0.00863647 49.7701C0.00863647 48.8914 0.305888 48.6071 1.18066 48.5984C2.53952 48.5984 3.90688 48.5984 5.32519 48.5984V47.892C5.32519 36.2873 5.32519 24.6827 5.32519 13.078C5.32519 11.9236 5.546 11.6996 6.68405 11.6996C10.7267 11.6996 14.7778 11.6996 18.8204 11.6996H19.5168V11.0965C19.5168 7.81415 19.5168 4.53176 19.5168 1.25799C19.5168 0.29309 19.7886 0.00878906 20.7228 0.00878906C25.2495 0.00878906 29.7762 0.00878906 34.303 0.00878906C35.2032 0.00878906 35.4835 0.301705 35.4835 1.23215C35.4835 6.87509 35.4835 12.518 35.4835 18.161V18.9105H36.1544C40.2395 18.9105 44.3246 18.9105 48.4012 18.9105C49.4203 18.9105 49.6751 19.169 49.6751 20.2028C49.6751 29.4297 49.6751 38.6479 49.6751 47.8748C49.6751 48.0988 49.6751 48.3141 49.6751 48.6071V48.5984ZM21.3258 1.82659V48.5554H33.6745V1.82659H21.3258ZM7.13418 13.526V48.5554H19.4828V13.526H7.13418ZM47.8746 20.7369H35.5259V48.5726H47.8746V20.7369ZM53.1996 50.4335H1.80064V52.1651H53.1996V50.4335Z" fill="#F4EFEA"/>
<path d="M26.6082 5.46209C26.4384 5.38455 26.2176 5.3587 26.1496 5.24671C25.9798 4.94517 25.7505 4.59195 25.7759 4.2818C25.8269 3.70459 26.4044 3.51505 27.4915 3.6012C28.0181 3.64428 28.3663 3.96304 28.3663 4.49718C28.3833 6.90082 28.3833 9.29584 28.3663 11.6995C28.3663 12.2336 27.9671 12.5955 27.4915 12.5955C26.9904 12.5955 26.6167 12.2164 26.6082 11.6392C26.5997 9.80414 26.6082 7.96911 26.6082 6.12545C26.6082 5.90146 26.6082 5.67746 26.6082 5.45347V5.46209Z" fill="#F4EFEA"/>
<path d="M12.2977 22.5028C13.2659 22.5028 14.0812 22.5028 14.8881 22.5028C15.5505 22.5028 15.9497 22.8302 15.9666 23.373C15.9836 23.933 15.5675 24.2948 14.8881 24.2948C13.8349 24.2948 12.7818 24.2948 11.7287 24.2948C10.9643 24.2948 10.6586 23.9674 10.6501 23.2007C10.6274 21.9026 11.0662 20.7999 11.9665 19.8924C12.6204 19.2291 13.2829 18.5743 13.9199 17.8937C14.0897 17.7128 14.1662 17.4457 14.3445 17.1011C13.3678 17.1011 12.561 17.1011 11.7542 17.1011C11.0578 17.1011 10.6501 16.7651 10.6501 16.1965C10.6501 15.6365 11.0578 15.3005 11.7542 15.3005C12.8073 15.3005 13.8604 15.3005 14.9135 15.3005C15.6354 15.3005 15.9497 15.6279 15.9666 16.3688C15.995 17.6783 15.5505 18.7983 14.6333 19.7287C13.9793 20.3921 13.3169 21.0383 12.6799 21.7275C12.5185 21.8998 12.4506 22.1755 12.2977 22.5028Z" fill="#F4EFEA"/>
<path d="M42.5494 29.7052V27.9046C41.9974 27.9046 41.4623 27.9046 40.9358 27.9046C40.3158 27.896 39.9336 27.56 39.9166 27.0345C39.8996 26.4917 40.2988 26.1213 40.9358 26.1127C41.4538 26.1127 41.9719 26.1127 42.5239 26.1127V24.3121C41.6916 24.3121 40.8508 24.3207 40.01 24.3121C39.407 24.3121 39.0164 23.933 39.0249 23.4075C39.0249 22.9164 39.3816 22.5287 39.9166 22.5201C41.0971 22.5029 42.2776 22.5029 43.4581 22.5201C43.9847 22.5287 44.3329 22.882 44.3329 23.4161C44.3499 25.8111 44.3499 28.2148 44.3329 30.6098C44.3329 31.1439 43.9762 31.4972 43.4581 31.5058C42.2776 31.523 41.0971 31.523 39.9166 31.5058C39.39 31.5058 39.0333 31.1095 39.0333 30.6184C39.0333 30.1101 39.3985 29.731 39.9676 29.7224C40.8169 29.7052 41.6577 29.7224 42.5579 29.7224L42.5494 29.7052Z" fill="#F4EFEA"/>
</g>
</g>
<defs>
<clipPath id="clip0_3_51">
<rect width="55" height="54" fill="white"/>
</clipPath>
</defs>
</svg>
