<svg width="62" height="57" viewBox="0 0 62 57" fill="none" xmlns="http://www.w3.org/2000/svg">
<g clip-path="url(#clip0_3_58)">
<g opacity="0.6">
<path d="M62 18.5724C62 17.692 62 16.8116 62 15.9312C61.9916 14.7909 61.3664 14.1452 60.1922 14.1369C58.1308 14.1117 56.078 14.1117 54.0166 14.1369C53.5267 14.1369 53.2732 14.0195 53.1127 13.5248C52.6734 12.2 52.1665 10.8919 51.6765 9.57552C51.3133 8.5945 50.874 8.28426 49.8264 8.27587C49.0154 8.27587 48.2129 8.27587 47.4018 8.27587C46.4726 8.28426 45.9995 8.61965 45.67 9.49167C45.1631 10.8584 44.6562 12.2335 44.1747 13.6086C44.048 13.9775 43.8706 14.1536 43.4482 14.1369C42.5865 14.1033 41.7248 14.1285 40.7786 14.1285C40.7786 13.181 40.7871 12.2838 40.7786 11.3866C40.7448 9.07243 39.3931 7.27808 37.2558 6.69953C34.4088 5.92812 31.5365 7.94048 31.3506 10.8584C31.283 11.9149 31.3422 12.9714 31.3422 14.0866C31.0634 14.1033 30.8691 14.1201 30.6748 14.1201C27.5068 14.1201 24.3388 14.1201 21.1708 14.1285C20.7146 14.1285 20.5456 13.9859 20.4611 13.5499C20.1908 12.1413 19.8782 10.741 19.5656 9.28205C20.9173 8.99697 22.2099 8.69511 23.5109 8.46034C23.6798 8.4268 23.9755 8.66158 24.0938 8.84604C24.4401 9.38267 24.7189 9.96961 25.0399 10.523C25.5299 11.3699 26.2987 11.6214 27.2026 11.2525C27.4983 11.1351 27.8024 11.0093 28.0897 10.8668C29.5765 10.1457 30.1341 8.51065 29.3738 7.06007C28.8078 5.97843 28.2164 4.90518 27.6081 3.84869C25.9016 0.930772 22.6998 -0.503032 19.3629 0.159369C18.3914 0.35222 17.4283 0.56184 16.4652 0.771461C16.4568 0.771461 16.4483 0.771461 16.4399 0.771461C14.3363 1.1907 9.25905 2.27234 8.11012 2.56581C7.35825 2.75866 7.05412 3.37914 7.02033 4.51947C6.64017 4.60332 6.23466 4.68717 5.78692 4.77102C5.73623 4.62009 5.69399 4.49432 5.6602 4.36855C5.4152 3.54684 4.91677 3.21983 4.06352 3.38752C3.15114 3.56361 2.2472 3.75646 1.34326 3.96608C0.591386 4.14216 0.202778 4.62848 0.346394 5.36634C0.777243 7.54639 1.24188 9.71806 1.73187 11.8813C1.87548 12.5186 2.44995 12.854 3.13424 12.7282C4.12266 12.5521 5.11108 12.3425 6.09105 12.1077C6.86826 11.9149 7.11326 11.3447 6.93585 10.196C7.3498 10.1121 7.7722 10.0199 8.16926 9.93607C8.92958 11.286 9.31819 11.4537 10.7797 11.1351C11.5062 10.9758 12.2243 10.8332 12.9931 10.6655C13.2381 11.8143 13.4746 12.9043 13.7281 14.1117H12.9762C9.34353 14.1117 5.71089 14.1285 2.07824 14.1033C1.08137 14.1033 0.354842 14.4219 -0.00842285 15.3778V55.6417C0.40553 56.6395 1.14896 56.9917 2.2303 56.9833C21.3989 56.9665 40.5674 56.9665 59.736 56.9665C61.3833 56.9665 61.9916 56.3712 61.9916 54.7278C61.9916 46.8377 61.9916 38.9559 61.9916 31.0658C61.9916 27.6196 61.9916 20.3249 61.9916 18.5557L62 18.5724ZM6.58103 8.41842C5.11108 8.72027 4.90832 8.9802 5.05194 10.4727C4.79005 10.5398 4.52816 10.6152 4.25783 10.6739C3.98749 10.7326 3.7087 10.7745 3.35389 10.8416C2.98218 9.11436 2.61891 7.40385 2.23875 5.62627C2.87235 5.49211 3.39613 5.38311 3.96215 5.26572C4.02973 5.49211 4.07197 5.68496 4.13111 5.86943C4.33386 6.47314 4.86608 6.79176 5.49968 6.68276C6.13329 6.56537 6.75844 6.43121 7.45962 6.28029C7.59479 6.88399 7.72996 7.47932 7.88203 8.13333C7.43428 8.23395 7.00343 8.33457 6.58103 8.41842ZM53.0536 16.8703C53.3999 15.8725 54.1096 15.8557 54.929 15.9144C55.3261 15.9396 55.7231 15.9144 56.1793 15.9144V18.4467H51.9469C52.3439 17.8933 52.8508 17.4321 53.0451 16.8619L53.0536 16.8703ZM56.1624 20.3249V33.5393H51.516V20.3249H56.1624ZM45.6362 14.8496C46.1853 13.3906 46.7176 11.9233 47.2413 10.4559C47.3427 10.1708 47.4863 10.0451 47.8074 10.0618C48.4916 10.0954 49.328 9.8606 49.818 10.1708C50.2742 10.4559 50.3671 11.3112 50.6036 11.9233C50.9585 12.854 51.271 13.8099 51.6428 14.7406C51.8455 15.2437 51.761 15.6461 51.4484 16.0821C49.3364 18.9917 49.6659 18.0526 49.6575 21.6245C49.6406 25.3641 49.6575 29.1121 49.6575 32.8518V33.5477H47.6891V32.7931C47.6891 28.5084 47.6722 24.2238 47.6975 19.9392C47.6975 18.9749 47.4694 18.128 46.8527 17.3818C46.481 16.9374 46.1684 16.4427 45.8136 15.9815C45.5517 15.6377 45.4757 15.2856 45.6362 14.858V14.8496ZM40.8293 15.9144C41.7501 15.9144 42.6118 15.9144 43.4735 15.9144C43.5918 15.9144 43.7608 15.9815 43.8199 16.0738C44.3099 16.8452 44.7914 17.6249 45.2898 18.4383H40.8293V15.9061V15.9144ZM40.8124 20.3416H45.8305V33.5226H39.503V29.2966C40.635 29.3218 41.767 29.3218 42.5104 28.3659C42.8737 27.8964 43.1525 27.2843 43.2285 26.7057C43.4059 25.23 42.5189 24.1903 40.8124 23.7123V20.3416ZM33.1247 11.4202C33.1247 9.31559 34.7974 7.94887 36.7405 8.41003C37.957 8.69511 38.9116 9.72645 38.92 11.0429C38.9707 15.2017 38.9369 19.369 38.9369 23.5279C38.9369 23.5614 38.9031 23.5949 38.8609 23.6956H33.1585C33.1416 23.5027 33.1247 23.3099 33.1247 23.1254C33.1247 19.2264 33.1162 15.3191 33.1247 11.4202ZM31.4266 25.5738C31.942 25.5151 32.4742 25.5318 32.998 25.5318C35.2958 25.5318 37.5937 25.5318 39.8916 25.5318C40.0521 25.5318 40.2126 25.5318 40.3731 25.5318C41.0489 25.5738 41.4375 25.9343 41.4375 26.5129C41.4375 27.0914 41.032 27.4771 40.3647 27.4855C38.9116 27.5023 37.4585 27.4855 36.0139 27.4855C34.6622 27.4855 33.3106 27.4855 31.9589 27.4855C31.7561 27.4855 31.5534 27.4855 31.3591 27.4352C30.8691 27.3094 30.6072 26.9824 30.6241 26.4709C30.641 25.9678 30.9282 25.6241 31.4266 25.5654V25.5738ZM37.6106 29.3385V33.5309H34.3919V29.3385H37.6106ZM31.283 23.5111C31.283 23.6285 30.9958 23.7794 30.8099 23.8381C29.5596 24.249 28.7824 25.3054 28.8078 26.5967C28.8331 27.8125 29.6864 28.9109 30.8691 29.1792C31.3929 29.2966 31.942 29.2966 32.5164 29.3469V33.5142C32.3559 33.5309 32.1954 33.5645 32.0434 33.5645C29.7877 33.5645 27.5237 33.5645 25.268 33.5645C24.9724 33.5645 24.7527 33.5729 24.6682 33.1704C23.7727 28.9025 22.8519 24.643 21.9226 20.3332H31.2999C31.2999 21.3897 31.3168 22.4462 31.2746 23.5027L31.283 23.5111ZM31.2661 15.948V18.4634C31.0718 18.4718 30.886 18.497 30.6917 18.497C27.8278 18.497 24.9724 18.497 22.1085 18.5054C21.6692 18.5054 21.4664 18.4047 21.3989 17.9436C21.3144 17.2979 21.137 16.6607 20.9849 15.948H31.2577H31.2661ZM22.9026 33.5729C21.8804 33.5729 20.9089 33.598 19.9373 33.5477C19.8191 33.5477 19.6839 33.1452 19.6332 32.9189C18.9574 29.7913 18.29 26.6638 17.6141 23.5362C16.6933 19.2348 15.7809 14.9334 14.8601 10.632C14.8432 10.5398 14.8263 10.4392 14.801 10.2882C15.7809 10.0786 16.744 9.87737 17.7747 9.65937C19.4812 17.6166 21.1792 25.5486 22.8942 33.5729H22.9026ZM10.6783 9.30721C10.484 9.34913 10.2897 9.37428 10.0194 9.42459C9.64766 7.69732 9.2844 6.01197 8.89579 4.22601C9.85886 4.01639 15.8401 2.74189 16.7778 2.54066C16.7947 2.54066 16.8116 2.54066 16.8285 2.54066C17.8591 2.33942 18.8813 2.10465 19.9036 1.9118C22.3281 1.45902 24.6936 2.52389 25.9439 4.63686C26.5184 5.60112 27.0421 6.59891 27.5828 7.57993C28.115 8.55257 27.9545 8.99697 26.907 9.43298C26.814 9.4749 26.7211 9.50006 26.569 9.55875C26.2734 9.03051 25.9861 8.51065 25.6904 7.99917C25.0568 6.87561 24.2374 6.48152 22.9786 6.74145C18.8729 7.5967 14.7756 8.46034 10.6783 9.32398V9.30721ZM5.82916 15.9564H14.1251C14.3025 16.7781 14.4799 17.5998 14.6742 18.4718H5.82916V15.9564ZM5.79537 21.0292C5.79537 20.8112 5.79537 20.6016 5.79537 20.3081C8.83665 20.3081 11.7766 20.3081 14.7249 20.3249C14.8685 20.3249 15.0966 20.5345 15.1304 20.6854C16.0597 24.9449 16.9721 29.2044 17.9014 33.5309H5.79537C5.79537 32.7428 5.79537 31.9462 5.79537 31.1497C5.79537 30.6717 5.79537 30.1938 5.79537 29.7159C5.79537 27.9299 5.79537 22.2031 5.79537 21.0208V21.0292ZM1.85859 15.9564H3.97904V16.6188C3.97904 19.3438 3.97904 27.2926 3.97904 30.0177C3.97904 30.0177 3.97904 30.0177 3.97904 30.0261C3.97904 30.9652 3.97904 31.8959 3.97904 32.835V33.5309H1.85859V15.9564ZM60.133 55.1302H1.84169V35.4175H60.133V55.1302ZM60.1077 33.5393H58.0548V15.9648H60.1837V16.6104C60.1837 18.7234 60.1837 25.5234 60.1837 29.6907C60.1837 30.9317 60.1837 32.1642 60.1668 33.4052C60.1668 33.4387 60.133 33.4723 60.1077 33.5393Z" fill="#F4EFEA"/>
<path d="M25.2089 46.1753C27.1266 46.1753 29.0443 46.1753 30.9536 46.1753C32.9304 46.1753 34.9073 46.1753 36.8841 46.1753C37.9823 46.1753 38.5652 45.6051 38.5821 44.5151C38.599 43.3161 38.599 42.1171 38.5821 40.9096C38.5652 39.7945 37.9739 39.2075 36.8418 39.2075C32.9473 39.2075 29.0612 39.2075 25.1667 39.2075C24.0009 39.2075 23.4179 39.7945 23.4011 40.9432C23.3842 42.1003 23.3926 43.2658 23.4011 44.4229C23.4095 45.6135 23.984 46.1669 25.2005 46.1669L25.2089 46.1753ZM25.2681 41.0438H36.7405V44.3474H25.2681V41.0438Z" fill="#F4EFEA"/>
</g>
</g>
<defs>
<clipPath id="clip0_3_58">
<rect width="62" height="57" fill="white"/>
</clipPath>
</defs>
</svg>
