<svg width="56" height="56" viewBox="0 0 56 56" fill="none" xmlns="http://www.w3.org/2000/svg">
<g clip-path="url(#clip0_4_63)">
<g opacity="0.6">
<path d="M32.9224 28.8926L36.4164 32.4187L34.1785 34.5148L40.4764 40.8387L55.602 25.6596L49.2068 19.2469L47.0662 21.5207L34.0546 8.45551L36.3279 6.32387L30.0212 0L14.9133 15.1702L21.2466 21.5385L23.4048 19.3091L26.6157 22.5243L26.1911 22.9684C26.1115 23.0573 26.0142 23.155 25.9169 23.2527L21.3527 27.8535C15.2671 33.9908 9.19033 40.1193 3.10472 46.2566C2.32633 47.0471 1.53025 47.8198 0.743011 48.6014L0 49.3386C2.14942 51.488 4.29 53.6374 6.43058 55.7957L11.499 50.6887C18.2922 43.8408 25.0766 37.0017 31.861 30.1627C32.0468 29.9762 32.2148 29.763 32.3652 29.5765C32.436 29.4877 32.5067 29.3989 32.5775 29.319L32.9313 28.9015L32.9224 28.8926ZM49.4367 22.6931L52.3115 25.5886L40.3879 37.5613L37.5043 34.6658L49.4367 22.6931ZM21.105 18.039L18.2126 15.1258L30.0389 3.25075L32.9224 6.17288L21.105 18.039ZM31.3126 27.4538L6.28021 52.2696L3.31701 49.312L28.4555 24.3895L31.4187 27.3472L31.3126 27.4538ZM25.2624 17.515L32.3386 10.4006L45.1556 23.2615L38.0704 30.3759L25.2624 17.515Z" fill="#F4EFEA"/>
<path d="M56 46.9495H25.9435V56.0001H56V46.9495ZM53.6029 53.602H28.2875V49.312H53.5941V53.602H53.6029Z" fill="#F4EFEA"/>
</g>
</g>
<defs>
<clipPath id="clip0_4_63">
<rect width="56" height="56" fill="white"/>
</clipPath>
</defs>
</svg>
