<svg width="55" height="70" viewBox="0 0 55 70" fill="none" xmlns="http://www.w3.org/2000/svg">
<g clip-path="url(#clip0_3_5)">
<path d="M53.6597 26.1718C52.2801 26.1718 51.2749 25.8145 50.654 25.1297C49.8558 24.2365 49.8853 23.0157 49.9445 22.5294C50.0331 21.7354 50.4175 20.8422 51.0975 19.8695L51.5902 19.1748L51.1468 18.4403C50.4273 17.2494 49.3039 16.0385 48.279 15.3438C47.8651 15.0659 47.3723 14.8277 46.8402 14.6093C46.9387 14.4406 47.0274 14.2818 47.1063 14.1429C48.003 12.5251 48.8604 10.8975 48.9097 9.00181C49.0082 5.32961 46.515 2.06433 42.9869 1.18102C39.8925 0.396957 36.7291 1.53832 34.8271 3.9699C32.6984 2.54073 30.688 1.19095 29.6533 0.535905L28.8255 0.0098877L28.0962 0.664928C27.1403 1.51847 25.3467 2.87817 23.6517 4.09893C22.065 5.24029 20.5572 6.27247 19.9068 6.64961L19.7787 6.72901C18.9509 7.35428 16.2507 8.52541 15.4524 8.66436C11.1656 8.66436 6.49436 8.59489 6.44508 8.59489L5.13439 8.57504V20.6933C3.33095 21.3582 1.78373 22.6882 0.857374 24.5044C0.748971 24.7029 -0.0591283 25.7748 -0.00985393 28.2163C0.0295655 30.2112 0.748971 31.5709 1.59649 33.0994C2.59183 34.9057 3.80398 36.5532 5.13439 38.1114V64.6505L11.5795 70.0099L20.2025 68.7693V52.036C21.0401 52.0658 22.2129 52.0757 23.6418 51.9963C26.1942 51.8673 29.5843 51.4703 33.4376 50.4678C39.7151 48.8302 47.9636 43.6594 49.028 42.6272C52.0238 39.7292 54.3791 35.1339 54.6157 31.6999C54.6452 31.2533 54.6945 30.7472 54.7339 30.2211C54.8128 29.2981 54.9015 28.3354 54.931 27.5216L54.9803 26.1718H53.64H53.6597ZM41.3116 3.17592C44.9185 3.35456 47.461 6.91759 46.377 10.3814C46.0025 11.5922 45.4309 12.6939 44.7707 13.726C44.2976 14.4605 43.7753 15.1751 43.2431 15.8698C43.0461 16.1279 42.8391 16.3859 42.6321 16.6539C42.1394 17.2791 41.6072 17.8746 41.0357 18.5594C39.0253 16.2569 37.2021 13.9642 35.9703 11.2448C35.3888 9.97444 35.3001 8.72391 35.5465 7.59248C35.7436 6.70916 36.1476 5.91518 36.7094 5.24029C37.8033 3.92028 39.4884 3.08659 41.3116 3.17592ZM2.8382 30.509C1.45852 27.472 2.80864 24.5144 5.14424 23.1844C5.92277 22.7378 6.79986 22.4798 7.72621 22.45C7.87404 22.45 8.02186 22.4301 8.16968 22.45C11.7766 22.6286 14.3191 26.1917 13.2351 29.6554C12.496 32.0473 11.0079 34.0025 9.49024 35.9279C8.99749 36.5532 8.46533 37.1487 7.89375 37.8335C7.83462 37.764 7.78534 37.7045 7.72621 37.635C6.80971 36.583 5.93263 35.521 5.14424 34.4194C4.2573 33.1887 3.46891 31.9084 2.8382 30.509ZM52.1815 29.9929C52.1322 30.5387 52.083 31.0648 52.0534 31.5213C51.8662 34.2804 49.7572 38.3298 47.2541 40.7514C46.5051 41.466 38.7395 46.4086 32.8068 47.9469C29.2394 48.8799 26.0661 49.2471 23.6615 49.3761C20.8529 49.525 19.0987 49.3563 19.0692 49.3463L17.6304 49.1875V66.4965L12.358 67.2508L7.72621 63.4099V40.5827C8.11055 40.6522 8.48504 40.4834 8.87923 40.0567C9.8253 39.0245 10.7319 37.9625 11.6583 36.9204C12.4073 35.9676 13.4322 34.3499 13.9545 33.407C14.8513 31.7893 15.7087 30.1616 15.7579 28.2659C15.8565 24.5938 13.3632 21.3285 9.83516 20.4452C9.13546 20.2665 8.42591 20.197 7.72621 20.207V11.215C9.45082 11.2349 12.5945 11.2647 15.551 11.2647H15.7087C16.9701 11.096 20.1335 9.6767 21.2767 8.85293C21.8088 8.53534 22.676 7.9597 23.6615 7.27488C25.4354 6.03427 27.633 4.42645 29.0718 3.24539C30.2052 3.98975 31.8411 5.08149 33.546 6.23277C33.3292 6.82826 33.1321 7.71158 33.1616 8.95218C33.201 10.9471 33.9204 12.3068 34.768 13.8352C36.1969 16.4355 38.0693 18.7083 40.1093 20.8322C40.7597 21.527 41.3806 21.5071 42.0409 20.7826C42.9869 19.7504 43.8936 18.6885 44.8199 17.6464C45.0072 17.4082 45.2141 17.1303 45.4211 16.8226C45.9927 17.0608 46.515 17.2791 46.8402 17.5074C47.3723 17.8647 47.9833 18.48 48.4859 19.1252C47.8552 20.197 47.4709 21.2392 47.3723 22.2416C47.1851 23.9983 47.6877 25.6855 48.7323 26.8566C49.363 27.5613 50.4668 28.385 52.2998 28.6629C52.2702 29.0897 52.2308 29.5363 52.1914 29.973L52.1815 29.9929Z" fill="#D8D87C"/>
<path d="M7.81491 31.5114C9.64792 31.561 11.2247 30.0624 11.2641 28.2263C11.3134 26.3306 9.8253 24.7526 7.96273 24.7129C7.8839 24.7129 7.80506 24.7327 7.72622 24.7327C6.67175 24.7824 5.72568 25.3183 5.14424 26.1421C4.76976 26.6681 4.53324 27.3132 4.51353 27.998C4.49382 28.7622 4.73034 29.4768 5.14424 30.0525C5.72568 30.8862 6.65204 31.4419 7.72622 31.5015C7.75578 31.5015 7.78535 31.5114 7.81491 31.5114ZM6.7703 28.0377C6.79986 27.5018 7.21376 27.0651 7.72622 26.9857C7.7952 26.9758 7.86419 26.9658 7.93317 26.9758C8.53432 27.0055 9.02706 27.5316 9.00735 28.137C8.9975 28.7523 8.47519 29.2485 7.87404 29.2386C7.82477 29.2386 7.77549 29.2287 7.72622 29.2188C7.16449 29.1394 6.73088 28.6233 6.7703 28.0377Z" fill="#D8D87C"/>
<path d="M39.991 12.0588C40.2965 12.158 40.6218 12.2374 40.9568 12.2473C41.5481 12.2572 42.1 12.1084 42.5927 11.8404C43.6373 11.2846 44.3765 10.2028 44.406 8.9622C44.4553 7.06655 42.9672 5.4885 41.1046 5.4488C40.1192 5.42895 39.2224 5.84579 38.5818 6.52068C38.0299 7.10625 37.6751 7.87046 37.6456 8.73393C37.6456 8.8431 37.6653 8.94235 37.6653 9.05152C37.754 10.4609 38.6902 11.632 39.9713 12.0687L39.991 12.0588ZM41.0849 7.71167C41.6861 7.74144 42.1788 8.26746 42.1591 8.87287C42.1591 8.91257 42.1591 8.94235 42.1493 8.97212C42.0803 9.53784 41.5974 9.97453 41.0258 9.97453C40.3951 9.97453 39.8826 9.41874 39.9221 8.77363C39.9418 8.36671 40.1881 8.01934 40.5331 7.84069C40.7006 7.75137 40.8878 7.70174 41.0849 7.71167Z" fill="#D8D87C"/>
<path d="M31.1019 20.5147C28.3722 19.8299 25.5832 20.6338 23.6615 22.5096C23.0604 23.0951 22.5381 23.7899 22.134 24.5839C22.0256 24.7824 21.2175 25.8542 21.2668 28.2958C21.3062 30.2906 22.0256 31.6504 22.8731 33.1788C23.1195 33.6353 23.3856 34.072 23.6615 34.5087C24.9624 36.5632 26.5293 38.429 28.2145 40.1857C28.8649 40.8805 29.4858 40.8606 30.146 40.1361C31.0921 39.1039 31.9987 38.042 32.9251 36.9998C33.6741 36.0471 34.699 34.4293 35.2213 33.4865C36.1181 31.8687 36.9754 30.241 37.0247 28.3454C37.1233 24.6732 34.63 21.4079 31.1019 20.5246V20.5147ZM34.5019 29.715C33.7628 32.1069 32.2747 34.0621 30.757 35.9875C30.2643 36.6128 29.7321 37.2083 29.1605 37.8931C27.1502 35.5905 25.327 33.2979 24.0951 30.5785C23.8882 30.112 23.7502 29.6555 23.6615 29.1989C23.5137 28.4347 23.5137 27.6903 23.6615 26.9956C24.2035 24.3457 26.6574 22.3706 29.4365 22.5096C33.0434 22.6882 35.5859 26.2512 34.5019 29.715Z" fill="#D8D87C"/>
<path d="M29.2295 24.7824C27.3768 24.7427 25.8296 26.2215 25.7803 28.0675C25.7311 29.9532 27.2093 31.5313 29.0817 31.5809C30.9147 31.6305 32.4915 30.1319 32.5309 28.2958C32.5802 26.4001 31.0921 24.8221 29.2295 24.7824ZM29.1408 29.3081C28.5101 29.3081 27.9977 28.7523 28.0371 28.1072C28.0667 27.5018 28.5988 27.0155 29.2 27.0453C29.8011 27.075 30.2939 27.6011 30.2741 28.2065C30.2643 28.8218 29.742 29.3181 29.1408 29.3081Z" fill="#D8D87C"/>
</g>
<defs>
<clipPath id="clip0_3_5">
<rect width="55" height="70" fill="white"/>
</clipPath>
</defs>
</svg>
